<?xml version="1.0" encoding="UTF-8" standalone="no"?>
<!-- Created with Inkscape (http://www.inkscape.org/) -->

<svg
   width="1024"
   height="1024"
   viewBox="0 0 270.93334 270.93333"
   version="1.1"
   id="svg1"
   xml:space="preserve"
   inkscape:version="1.4.2 (ebf0e940, 2025-05-08)"
   sodipodi:docname="gitopolis.svg"
   xmlns:inkscape="http://www.inkscape.org/namespaces/inkscape"
   xmlns:sodipodi="http://sodipodi.sourceforge.net/DTD/sodipodi-0.dtd"
   xmlns="http://www.w3.org/2000/svg"
   xmlns:svg="http://www.w3.org/2000/svg"><sodipodi:namedview
     id="namedview1"
     pagecolor="#ffffff"
     bordercolor="#000000"
     borderopacity="0.25"
     inkscape:showpageshadow="2"
     inkscape:pageopacity="0.0"
     inkscape:pagecheckerboard="true"
     inkscape:deskcolor="#d1d1d1"
     inkscape:document-units="mm"
     inkscape:lockguides="false"
     inkscape:zoom="0.62891417"
     inkscape:cx="405.46073"
     inkscape:cy="569.23507"
     inkscape:window-width="2048"
     inkscape:window-height="1221"
     inkscape:window-x="0"
     inkscape:window-y="31"
     inkscape:window-maximized="1"
     inkscape:current-layer="svg1" /><defs
     id="defs1"><inkscape:path-effect
       effect="fillet_chamfer"
       id="path-effect1090"
       is_visible="true"
       lpeversion="1"
       nodesatellites_param="F,0,1,1,0,22.412956,0,1 @ F,0,1,1,0,22.412956,0,1 @ F,0,1,1,0,22.412956,0,1 @ F,0,1,1,0,22.412956,0,1"
       radius="80"
       unit="px"
       method="auto"
       mode="F"
       chamfer_steps="1"
       flexible="false"
       use_knot_distance="true"
       apply_no_radius="true"
       apply_with_radius="true"
       only_selected="true"
       hide_knots="false" /><clipPath
       clipPathUnits="userSpaceOnUse"
       id="clipPath25"><rect
         style="fill:#ff0000;stroke:none;stroke-width:3;stroke-linecap:square;stroke-linejoin:miter;paint-order:stroke markers fill;stop-color:#000000"
         id="rect25-8"
         width="78"
         height="45.033199"
         x="763.61322"
         y="452.82422" /></clipPath><rect
       x="243.4848"
       y="877.62007"
       width="26.456752"
       height="20.669337"
       id="rect461" /><linearGradient
       id="linearGradient458"
       inkscape:swatch="gradient"><stop
         style="stop-color:#000000;stop-opacity:1;"
         offset="0"
         id="stop458" /><stop
         style="stop-color:#000000;stop-opacity:0;"
         offset="1"
         id="stop459" /></linearGradient><linearGradient
       id="swatch63"
       inkscape:swatch="solid"><stop
         style="stop-color:#000000;stop-opacity:1;"
         offset="0"
         id="stop63" /></linearGradient><linearGradient
       id="swatch62"
       inkscape:swatch="solid"><stop
         style="stop-color:#000000;stop-opacity:1;"
         offset="0"
         id="stop62" /></linearGradient><linearGradient
       id="swatch44"
       inkscape:swatch="solid"><stop
         style="stop-color:#ffffff;stop-opacity:1;"
         offset="0"
         id="stop44" /></linearGradient><clipPath
       clipPathUnits="userSpaceOnUse"
       id="clipPath54"><path
         id="path54"
         style="stroke-width:0.0999999;stroke-linecap:square;paint-order:markers fill stroke;stop-color:#000000"
         d="m 1691.1994,-792.32001 h 1634.8919 v 92.82806 H 1691.1994 Z" /></clipPath><clipPath
       clipPathUnits="userSpaceOnUse"
       id="clipPath55"><path
         id="path55"
         style="stroke-width:0.1;stroke-linecap:square;paint-order:markers fill stroke;stop-color:#000000"
         d="m 1736.6147,-745.57287 h 1589.4765 v 72.46715 H 1736.6147 Z" /></clipPath><linearGradient
       id="swatch24"
       inkscape:swatch="solid"><stop
         style="stop-color:#000000;stop-opacity:1;"
         offset="0"
         id="stop24" /></linearGradient><linearGradient
       id="swatch6"><stop
         style="stop-color:#000000;stop-opacity:0.30625001;"
         offset="0"
         id="stop7" /></linearGradient><linearGradient
       id="swatch4"
       inkscape:swatch="solid"><stop
         style="stop-color:#000000;stop-opacity:1;"
         offset="1"
         id="stop4" /></linearGradient><filter
       y="0"
       height="1"
       inkscape:menu-tooltip="Darkens the edge with an inner blur and adds a flexible glow"
       inkscape:menu="Shadows and Glows"
       inkscape:label="Dark and Glow"
       style="color-interpolation-filters:sRGB;"
       id="filter450"
       x="0"
       width="1"><feComposite
         result="result8"
         in="SourceGraphic"
         operator="atop"
         in2="result6"
         id="feComposite449" /><feComposite
         result="result9"
         operator="over"
         in2="SourceAlpha"
         in="result8"
         id="feComposite450" /><feColorMatrix
         values="1 0 0 0 0 0 1 0 0 0 0 0 1 0 0 0 0 0 1 0 "
         result="result10"
         id="feColorMatrix450" /><feBlend
         in="result10"
         mode="normal"
         in2="result6"
         id="feBlend450" /></filter><filter
       y="0"
       height="1"
       inkscape:menu-tooltip="Darkens the edge with an inner blur and adds a flexible glow"
       inkscape:menu="Shadows and Glows"
       inkscape:label="Dark and Glow"
       style="color-interpolation-filters:sRGB;"
       id="filter452"
       x="0"
       width="1"><feComposite
         result="result8"
         in="SourceGraphic"
         operator="atop"
         in2="result6"
         id="feComposite451" /><feComposite
         result="result9"
         operator="over"
         in2="SourceAlpha"
         in="result8"
         id="feComposite452" /><feColorMatrix
         values="1 0 0 0 0 0 1 0 0 0 0 0 1 0 0 0 0 0 1 0 "
         result="result10"
         id="feColorMatrix452" /><feBlend
         in="result10"
         mode="normal"
         in2="result6"
         id="feBlend452" /></filter><filter
       y="0"
       height="1"
       inkscape:menu-tooltip="Darkens the edge with an inner blur and adds a flexible glow"
       inkscape:menu="Shadows and Glows"
       inkscape:label="Dark and Glow"
       style="color-interpolation-filters:sRGB"
       id="filter454"
       x="0"
       width="1"><feComposite
         result="result8"
         in="SourceGraphic"
         operator="atop"
         in2="result6"
         id="feComposite453" /><feComposite
         result="result9"
         operator="over"
         in2="SourceAlpha"
         in="result8"
         id="feComposite454" /><feColorMatrix
         values="1 0 0 0 0 0 1 0 0 0 0 0 1 0 0 0 0 0 1 0 "
         result="result10"
         id="feColorMatrix454" /><feBlend
         in="result10"
         mode="normal"
         in2="result6"
         id="feBlend454" /></filter><filter
       inkscape:label="Pointillism"
       inkscape:menu="Scatter"
       inkscape:menu-tooltip="Gives a turbulent pointillist HSL sensitive transparency"
       style="color-interpolation-filters:sRGB;"
       id="filter630"
       x="0"
       y="0"
       width="1"
       height="1"><feComposite
         in="SourceGraphic"
         in2="result91"
         id="feComposite630"
         result="fbSourceGraphic" /><feColorMatrix
         result="fbSourceGraphicAlpha"
         in="fbSourceGraphic"
         values="0 0 0 -1 0 0 0 0 -1 0 0 0 0 -1 0 0 0 0 1 0"
         id="feColorMatrix875" /><feTurbulence
         id="feTurbulence875"
         seed="50"
         type="fractalNoise"
         baseFrequency="1"
         numOctaves="3"
         result="result1"
         in="fbSourceGraphic" /><feColorMatrix
         id="feColorMatrix876"
         type="luminanceToAlpha"
         in="fbSourceGraphic"
         result="result0" /><feColorMatrix
         id="feColorMatrix877"
         result="result2"
         values="1 0 0 0 0 0 1 0 0 0 0 0 1 0 0 0 0 0 0.5 0 " /><feComposite
         id="feComposite877"
         result="result3"
         operator="over"
         in="result1"
         in2="result2" /><feColorMatrix
         id="feColorMatrix878"
         result="result91"
         values="1 0 0 0 0 0 1 0 0 0 0 0 1 0 0 0 0 0 5 -3.2" /><feComposite
         id="feComposite878"
         in2="result91"
         operator="arithmetic"
         k1="1.5"
         result="result93" /><feComposite
         id="feComposite879"
         in2="result93"
         in="fbSourceGraphic"
         operator="out"
         result="result4" /><feComposite
         id="feComposite880"
         in2="result4"
         operator="arithmetic"
         k2="0.5"
         k1="1" /><feDisplacementMap
         id="feDisplacementMap880"
         scale="0"
         xChannelSelector="R"
         yChannelSelector="A"
         in2="result1"
         result="result92" /></filter><filter
       inkscape:label="Pointillism"
       inkscape:menu="Scatter"
       inkscape:menu-tooltip="Gives a turbulent pointillist HSL sensitive transparency"
       style="color-interpolation-filters:sRGB;"
       id="filter632"
       x="0"
       y="0"
       width="1"
       height="1"><feComposite
         in="SourceGraphic"
         in2="result91"
         id="feComposite632"
         result="fbSourceGraphic" /><feColorMatrix
         result="fbSourceGraphicAlpha"
         in="fbSourceGraphic"
         values="0 0 0 -1 0 0 0 0 -1 0 0 0 0 -1 0 0 0 0 1 0"
         id="feColorMatrix870" /><feTurbulence
         id="feTurbulence870"
         seed="50"
         type="fractalNoise"
         baseFrequency="1"
         numOctaves="3"
         result="result1"
         in="fbSourceGraphic" /><feColorMatrix
         id="feColorMatrix871"
         type="luminanceToAlpha"
         in="fbSourceGraphic"
         result="result0" /><feColorMatrix
         id="feColorMatrix872"
         result="result2"
         values="1 0 0 0 0 0 1 0 0 0 0 0 1 0 0 0 0 0 0.5 0 " /><feComposite
         id="feComposite872"
         result="result3"
         operator="over"
         in="result1"
         in2="result2" /><feColorMatrix
         id="feColorMatrix873"
         result="result91"
         values="1 0 0 0 0 0 1 0 0 0 0 0 1 0 0 0 0 0 5 -3.2" /><feComposite
         id="feComposite873"
         in2="result91"
         operator="arithmetic"
         k1="1.5"
         result="result93" /><feComposite
         id="feComposite874"
         in2="result93"
         in="fbSourceGraphic"
         operator="out"
         result="result4" /><feComposite
         id="feComposite875"
         in2="result4"
         operator="arithmetic"
         k2="0.5"
         k1="1" /><feDisplacementMap
         id="feDisplacementMap875"
         scale="0"
         xChannelSelector="R"
         yChannelSelector="A"
         in2="result1"
         result="result92" /></filter><filter
       inkscape:label="Pointillism"
       inkscape:menu="Scatter"
       inkscape:menu-tooltip="Gives a turbulent pointillist HSL sensitive transparency"
       style="color-interpolation-filters:sRGB;"
       id="filter634"
       x="0"
       y="0"
       width="1"
       height="1"><feComposite
         id="feComposite634"
         in2="result91"
         in="SourceGraphic"
         result="fbSourceGraphic" /><feColorMatrix
         result="fbSourceGraphicAlpha"
         in="fbSourceGraphic"
         values="0 0 0 -1 0 0 0 0 -1 0 0 0 0 -1 0 0 0 0 1 0"
         id="feColorMatrix880" /><feTurbulence
         id="feTurbulence880"
         seed="50"
         type="fractalNoise"
         baseFrequency="1"
         numOctaves="3"
         result="result1"
         in="fbSourceGraphic" /><feColorMatrix
         id="feColorMatrix881"
         type="luminanceToAlpha"
         in="fbSourceGraphic"
         result="result0" /><feColorMatrix
         id="feColorMatrix882"
         result="result2"
         values="1 0 0 0 0 0 1 0 0 0 0 0 1 0 0 0 0 0 0.5 0 " /><feComposite
         id="feComposite882"
         result="result3"
         operator="over"
         in="result1"
         in2="result2" /><feColorMatrix
         id="feColorMatrix883"
         result="result91"
         values="1 0 0 0 0 0 1 0 0 0 0 0 1 0 0 0 0 0 5 -3.2" /><feComposite
         id="feComposite883"
         in2="result91"
         operator="arithmetic"
         k1="1.5"
         result="result93" /><feComposite
         id="feComposite884"
         in2="result93"
         in="fbSourceGraphic"
         operator="out"
         result="result4" /><feComposite
         id="feComposite885"
         in2="result4"
         operator="arithmetic"
         k2="0.5"
         k1="1" /><feDisplacementMap
         id="feDisplacementMap885"
         scale="0"
         xChannelSelector="R"
         yChannelSelector="A"
         in2="result1"
         result="result92" /></filter><filter
       inkscape:label="Pointillism"
       inkscape:menu="Scatter"
       inkscape:menu-tooltip="Gives a turbulent pointillist HSL sensitive transparency"
       style="color-interpolation-filters:sRGB"
       id="filter634-6"
       x="0"
       y="0"
       width="1"
       height="1"><feComposite
         id="feComposite634-0"
         in2="result91"
         in="SourceGraphic"
         result="fbSourceGraphic" /><feColorMatrix
         result="fbSourceGraphicAlpha"
         in="fbSourceGraphic"
         values="0 0 0 -1 0 0 0 0 -1 0 0 0 0 -1 0 0 0 0 1 0"
         id="feColorMatrix880-7" /><feTurbulence
         id="feTurbulence880-2"
         seed="50"
         type="fractalNoise"
         baseFrequency="1"
         numOctaves="3"
         result="result1" /><feColorMatrix
         id="feColorMatrix881-5"
         type="luminanceToAlpha"
         in="fbSourceGraphic"
         result="result0" /><feColorMatrix
         id="feColorMatrix882-8"
         result="result2"
         values="1 0 0 0 0 0 1 0 0 0 0 0 1 0 0 0 0 0 0.5 0 " /><feComposite
         id="feComposite882-1"
         result="result3"
         operator="over"
         in="result1"
         in2="result2" /><feColorMatrix
         id="feColorMatrix883-2"
         result="result91"
         values="1 0 0 0 0 0 1 0 0 0 0 0 1 0 0 0 0 0 5 -3.2" /><feComposite
         id="feComposite883-6"
         in2="result91"
         operator="arithmetic"
         k1="1.5"
         result="result93"
         k2="0"
         k3="0"
         k4="0" /><feComposite
         id="feComposite884-9"
         in2="result93"
         in="fbSourceGraphic"
         operator="out"
         result="result4" /><feComposite
         id="feComposite885-3"
         in2="result4"
         operator="arithmetic"
         k2="0.5"
         k1="1"
         k3="0"
         k4="0" /><feDisplacementMap
         id="feDisplacementMap885-2"
         scale="0"
         xChannelSelector="R"
         yChannelSelector="A"
         in2="result1"
         result="result92" /></filter><filter
       inkscape:label="Pointillism"
       inkscape:menu="Scatter"
       inkscape:menu-tooltip="Gives a turbulent pointillist HSL sensitive transparency"
       style="color-interpolation-filters:sRGB"
       id="filter634-1"
       x="0"
       y="0"
       width="1"
       height="1"><feComposite
         id="feComposite634-5"
         in2="result91"
         in="SourceGraphic"
         result="fbSourceGraphic" /><feColorMatrix
         result="fbSourceGraphicAlpha"
         in="fbSourceGraphic"
         values="0 0 0 -1 0 0 0 0 -1 0 0 0 0 -1 0 0 0 0 1 0"
         id="feColorMatrix880-4" /><feTurbulence
         id="feTurbulence880-3"
         seed="50"
         type="fractalNoise"
         baseFrequency="1"
         numOctaves="3"
         result="result1" /><feColorMatrix
         id="feColorMatrix881-6"
         type="luminanceToAlpha"
         in="fbSourceGraphic"
         result="result0" /><feColorMatrix
         id="feColorMatrix882-9"
         result="result2"
         values="1 0 0 0 0 0 1 0 0 0 0 0 1 0 0 0 0 0 0.5 0 " /><feComposite
         id="feComposite882-14"
         result="result3"
         operator="over"
         in="result1"
         in2="result2" /><feColorMatrix
         id="feColorMatrix883-1"
         result="result91"
         values="1 0 0 0 0 0 1 0 0 0 0 0 1 0 0 0 0 0 5 -3.2" /><feComposite
         id="feComposite883-5"
         in2="result91"
         operator="arithmetic"
         k1="1.5"
         result="result93"
         k2="0"
         k3="0"
         k4="0" /><feComposite
         id="feComposite884-2"
         in2="result93"
         in="fbSourceGraphic"
         operator="out"
         result="result4" /><feComposite
         id="feComposite885-5"
         in2="result4"
         operator="arithmetic"
         k2="0.5"
         k1="1"
         k3="0"
         k4="0" /><feDisplacementMap
         id="feDisplacementMap885-1"
         scale="0"
         xChannelSelector="R"
         yChannelSelector="A"
         in2="result1"
         result="result92" /></filter><filter
       inkscape:label="Pointillism"
       inkscape:menu="Scatter"
       inkscape:menu-tooltip="Gives a turbulent pointillist HSL sensitive transparency"
       style="color-interpolation-filters:sRGB"
       id="filter634-69"
       x="0"
       y="0"
       width="1"
       height="1"><feComposite
         id="feComposite634-2"
         in2="result91"
         in="SourceGraphic"
         result="fbSourceGraphic" /><feColorMatrix
         result="fbSourceGraphicAlpha"
         in="fbSourceGraphic"
         values="0 0 0 -1 0 0 0 0 -1 0 0 0 0 -1 0 0 0 0 1 0"
         id="feColorMatrix880-2" /><feTurbulence
         id="feTurbulence880-8"
         seed="50"
         type="fractalNoise"
         baseFrequency="1"
         numOctaves="3"
         result="result1" /><feColorMatrix
         id="feColorMatrix881-3"
         type="luminanceToAlpha"
         in="fbSourceGraphic"
         result="result0" /><feColorMatrix
         id="feColorMatrix882-80"
         result="result2"
         values="1 0 0 0 0 0 1 0 0 0 0 0 1 0 0 0 0 0 0.5 0 " /><feComposite
         id="feComposite882-19"
         result="result3"
         operator="over"
         in="result1"
         in2="result2" /><feColorMatrix
         id="feColorMatrix883-29"
         result="result91"
         values="1 0 0 0 0 0 1 0 0 0 0 0 1 0 0 0 0 0 5 -3.2" /><feComposite
         id="feComposite883-55"
         in2="result91"
         operator="arithmetic"
         k1="1.5"
         result="result93"
         k2="0"
         k3="0"
         k4="0" /><feComposite
         id="feComposite884-3"
         in2="result93"
         in="fbSourceGraphic"
         operator="out"
         result="result4" /><feComposite
         id="feComposite885-0"
         in2="result4"
         operator="arithmetic"
         k2="0.5"
         k1="1"
         k3="0"
         k4="0" /><feDisplacementMap
         id="feDisplacementMap885-4"
         scale="0"
         xChannelSelector="R"
         yChannelSelector="A"
         in2="result1"
         result="result92" /></filter><filter
       style="color-interpolation-filters:sRGB;"
       inkscape:label="Cross-smooth"
       id="filter1090"
       x="-0.132"
       y="-0.132"
       width="1.264"
       height="1.264"><feGaussianBlur
         in="SourceGraphic"
         stdDeviation="10"
         result="blur1"
         id="feGaussianBlur1088" /><feComposite
         in="blur1"
         in2="blur1"
         operator="in"
         result="composite1"
         id="feComposite1088" /><feComposite
         in="composite1"
         in2="composite1"
         k2="1"
         operator="arithmetic"
         result="composite2"
         id="feComposite1089" /><feColorMatrix
         in="composite2"
         values="1 0 0 0 0 0 1 0 0 0 0 0 1 0 0 0 0 0 10 0 "
         result="colormatrix1"
         id="feColorMatrix1089" /><feGaussianBlur
         stdDeviation="1"
         result="blur2"
         id="feGaussianBlur1089" /><feColorMatrix
         in="blur2"
         values="1 0 0 0 0 0 1 0 0 0 0 0 1 0 0 0 0 0 5 -1 "
         result="colormatrix2"
         id="feColorMatrix1090" /><feBlend
         in="SourceGraphic"
         in2="colormatrix2"
         stdDeviation="17"
         mode="normal"
         result="blend"
         id="feBlend1090" /><feComposite
         in="blend"
         in2="colormatrix2"
         operator="in"
         result="composite3"
         id="feComposite1090" /></filter><filter
       style="color-interpolation-filters:sRGB;"
       inkscape:label="Diffuse Light"
       id="filter1113"
       x="-0.073671061"
       y="-0.073671033"
       width="1.1473421"
       height="1.1473421"><feGaussianBlur
         in="SourceGraphic"
         stdDeviation="6"
         result="blur"
         id="feGaussianBlur1112" /><feDiffuseLighting
         diffuseConstant="1"
         surfaceScale="10"
         lighting-color="rgb(255,255,255)"
         result="diffuse"
         id="feDiffuseLighting1112"><feDistantLight
           elevation="33"
           azimuth="193"
           id="feDistantLight1112" /></feDiffuseLighting><feComposite
         in="diffuse"
         in2="diffuse"
         operator="arithmetic"
         k1="1"
         result="composite1"
         id="feComposite1112" /><feComposite
         in="composite1"
         in2="SourceGraphic"
         k1="1"
         operator="arithmetic"
         k3="1"
         result="composite2"
         id="feComposite1113" /></filter><filter
       style="color-interpolation-filters:sRGB;"
       inkscape:label="Electrize"
       id="filter1288"
       x="-0.031754081"
       y="-0.15148449"
       width="1.0635082"
       height="1.302969"><feGaussianBlur
         stdDeviation="0.2"
         result="blur"
         id="feGaussianBlur1288" /><feComponentTransfer
         in="blur"
         result="component"
         id="feComponentTransfer1288"><feFuncR
           type="table"
           tableValues="0 1 0 1 0 1 0 1"
           id="feFuncR1288" /><feFuncG
           type="table"
           tableValues="0 1 0 1 0 1 0 1"
           id="feFuncG1288" /><feFuncB
           type="table"
           tableValues="0 1 0 1 0 1 0 1"
           id="feFuncB1288" /></feComponentTransfer></filter><filter
       style="color-interpolation-filters:sRGB"
       inkscape:label="Electrize"
       id="filter1288-1"
       x="-0.031754081"
       y="-0.15148449"
       width="1.0635082"
       height="1.302969"><feGaussianBlur
         stdDeviation="0.2"
         result="blur"
         id="feGaussianBlur1288-7" /><feComponentTransfer
         in="blur"
         result="component"
         id="feComponentTransfer1288-6"><feFuncR
           type="table"
           tableValues="0 1 0 1 0 1 0 1"
           id="feFuncR1288-4" /><feFuncG
           type="table"
           tableValues="0 1 0 1 0 1 0 1"
           id="feFuncG1288-7" /><feFuncB
           type="table"
           tableValues="0 1 0 1 0 1 0 1"
           id="feFuncB1288-0" /></feComponentTransfer></filter></defs><path
     id="rect975"
     style="opacity:1;fill:#ff4124;stroke-width:0.195705;paint-order:markers stroke fill;filter:url(#filter1113)"
     inkscape:label="losang"
     d="m 134.50788,12.40152 a 16.578218,16.578218 0 0 0 -11.65886,5.006565 L 42.742042,99.607933 a 16.578218,16.578218 0 0 0 0.302379,23.443287 l 82.199859,80.10697 a 16.578218,16.578218 0 0 0 23.44329,-0.30238 l 80.10697,-82.20023 A 16.578218,16.578218 0 0 0 228.49216,97.212306 L 146.29193,17.105708 A 16.578218,16.578218 0 0 0 134.50788,12.40152 Z m -20.05379,37.578102 38.9897,-10e-7 v 96.971849 h -38.9897 z m 41.31822,6.182143 c 6.40344,2.277511 12.80657,4.555006 19.21001,6.83252 6.53314,27.887254 13.06672,55.774715 19.59985,83.661965 l -38.80986,1e-5 z m -38.64923,1.611796 v 4.614835 l 1.8908,5e-6 v -4.614836 z m 13.88447,3e-6 v 4.614835 l 1.89041,10e-7 v -4.614835 z m 4.62727,-2e-6 v 4.614835 l 1.89118,1e-6 v -4.614835 z m 4.62766,0 v 4.614835 l 1.89042,1e-6 v -4.614835 z m 18.74323,4.796943 1e-5,4.615209 1.8908,-2e-6 v -4.615209 z m 5.31348,-4e-6 -1e-5,4.615215 1.89006,-3e-6 -1e-5,-4.615209 z m -45.65331,2.844685 v 4.615963 l 1.89118,2e-6 -1e-5,-4.615964 z m 4.62803,-2e-6 v 4.615969 h 1.89042 l 1e-5,-4.615968 z m 4.62765,0 v 4.61597 l 1.89081,-2e-6 -10e-6,-4.615964 z m 4.62841,2e-6 v 4.615963 l 1.89042,10e-7 v -4.615964 z m 4.62804,-3e-6 -1e-5,4.61597 h 1.89042 v -4.615968 z m 4.6269,0 -1e-5,4.615969 1.89118,2e-6 1e-5,-4.615969 z m 4.62803,4e-6 c 0,1.538677 0,3.077285 0,4.615964 l 1.89155,-2e-6 v -4.615963 z m 12.57278,4.796938 v 4.614835 l 1.8908,-2e-6 v -4.614835 z m 5.31347,2e-6 -1e-5,4.614835 1.89006,-3e-6 v -4.614835 z m 5.31309,-10e-7 v 4.614835 h 1.89042 v -4.614835 z m -88.044941,1.678531 30.206051,2e-6 V 146.76521 H 81.587339 Z m 37.592421,1.166909 v 4.615209 l 1.89156,-10e-7 v -4.61521 z m 4.62804,-2e-6 v 4.615209 l 1.89155,4e-6 v -4.615214 z m 13.88409,0 1e-5,4.615209 1.89041,10e-7 v -4.61521 z m 4.62804,-2e-6 c 0,1.538344 -2e-5,3.07687 -1e-5,4.615215 l 1.89081,-2e-6 v -4.61521 z m 4.62727,2e-6 1e-5,4.61521 1.89155,-10e-7 v -4.615209 z m -61.610688,4.304163 v 4.614836 l 1.891181,-5e-6 c 0,-1.538344 -4e-6,-3.076485 -4e-6,-4.614829 z m 5.314226,-2e-6 -10e-7,4.614835 1.890044,3e-6 10e-7,-4.614836 z m 5.312714,10e-7 v 4.614835 l 1.890801,-10e-7 10e-7,-4.614835 z m 5.313468,2e-6 10e-6,4.61483 h 1.89042 v -4.614829 z m 5.31348,-3e-6 -1e-5,4.614835 1.89118,10e-7 v -4.614835 z m 52.41531,0.492026 1e-5,4.615209 1.8908,-10e-7 v -4.61521 z m 10.62657,-5e-6 v 4.615215 l 1.89042,1e-6 1e-5,-4.615215 z m -49.93711,2.845816 v 4.615215 l 1.89004,-3e-6 v -4.615209 z m 4.6269,0 -1e-5,4.615215 1.89118,10e-7 v -4.615215 z m 4.62802,3e-6 1e-5,4.61521 h 1.89042 v -4.61521 z m 4.62804,-2e-6 v 4.61521 h 1.89043 l -1e-5,-4.615209 z m 4.62803,-2e-6 v 4.615215 l 1.89042,1e-6 1e-5,-4.615215 z m 4.62803,4e-6 v 4.61521 h 1.89043 v -4.61521 z m 4.6269,0 v 4.615209 l 1.89156,-10e-7 v -4.615209 z m -62.124575,4.303783 -3e-6,4.615218 1.891181,-8e-6 c -10e-7,-1.538345 -10e-7,-3.076863 -2e-6,-4.615209 z m 10.626935,4e-6 1e-6,4.615206 h 1.890802 l -10e-7,-4.615208 z m 5.31347,-4e-6 v 4.615218 l 1.89043,-8e-6 v -4.615209 z m 5.31347,3e-6 1e-5,4.615207 h 1.89117 v -4.615206 z m 52.41533,0.49202 -1e-5,4.615212 h 1.89081 v -4.615209 z m 5.31347,2e-6 v 4.61521 h 1.89004 l 1e-5,-4.615213 z m 5.31309,-10e-7 v 4.615211 h 1.89043 v -4.61521 z m 5.31309,-10e-7 v 4.615212 h 1.89156 V 85.49537 Z m -52.16573,2.845819 c 1e-5,1.538345 0,3.076485 0,4.61483 h 1.89043 v -4.61483 z m 4.62804,-8e-6 v 4.614838 h 1.89079 v -4.61483 z m 4.62802,8e-6 v 4.61483 h 1.89042 v -4.61483 z m 4.62841,-8e-6 v 4.614838 h 1.89004 v -4.61483 z m 4.62653,0 v 4.614838 h 1.89155 v -4.614838 z m 4.62803,0 v 4.614838 h 1.89079 v -4.61483 z m -60.582157,4.30379 10e-7,4.61521 h 1.891176 c 0,-1.538345 -10e-7,-3.076865 -10e-7,-4.61521 -0.630472,0 -1.260699,0 -1.891176,0 z m 5.314225,0 -3e-6,4.615217 1.890049,-7e-6 -2e-6,-4.61521 c -0.630141,0 -1.259903,0 -1.890044,0 z m 5.312714,0 2e-6,4.61521 h 1.890796 l 4e-6,-4.61521 c -0.630141,0 -1.260662,0 -1.890802,0 z m 10.626948,0 -1e-5,4.61521 h 1.89118 v -4.61521 c -0.63048,0 -1.2607,0 -1.89117,0 z m 52.41532,0.492397 v 4.614836 h 1.8908 v -4.614829 z m 5.31347,7e-6 -1e-5,4.614829 h 1.89006 v -4.614836 z m 5.31309,-7e-6 v 4.614836 h 1.89042 l 1e-5,-4.614829 z m -49.42322,2.845437 v 4.615214 h 1.89042 v -4.615214 z m 4.62727,7e-6 v 4.615207 h 1.89118 v -4.615207 z m 4.62803,-7e-6 v 4.615214 l 1.89118,-1e-5 v -4.615197 z m 4.62766,0 v 4.615204 l 1.8908,1e-5 c -1e-5,-1.538334 0,-3.076865 0,-4.615214 z m 4.62803,0 v 4.615214 h 1.8908 v -4.615207 z m 4.62841,0 v 4.615214 l 1.89043,-1e-5 v -4.615204 z m 4.62803,7e-6 v 4.615207 l 1.89005,-1e-5 v -4.615204 z m -62.639977,4.304157 2e-6,4.61521 h 1.891176 c 0,-1.53835 0,-3.07687 -2e-6,-4.61521 z m 5.314225,-1e-5 -3e-6,4.61522 h 1.890049 l -2e-6,-4.61521 z m 5.312714,1e-5 3e-6,4.61521 h 1.890796 l 3e-6,-4.61522 z m 5.313468,0 v 4.61521 h 1.89043 v -4.61521 z m 5.31348,-1e-5 -1e-5,4.61522 h 1.89118 v -4.61521 z m 52.41532,0.49203 -1e-5,4.61483 h 1.89081 v -4.61483 z m 5.31347,0 v 4.61483 h 1.89004 l 1e-5,-4.61483 z m 5.31309,0 v 4.61483 h 1.89043 v -4.61483 z m 5.31309,0 v 4.61483 h 1.89156 v -4.61483 z m 5.31423,0 v 4.61483 h 1.89042 v -4.61483 z m -59.53665,2.84544 v 4.6152 l 1.89079,10e-6 10e-6,-4.61522 z m 9.2553,0 v 4.61521 l 1.89156,-10e-6 c 0,-1.53835 1e-5,-3.07685 0,-4.6152 z m 9.25607,-1e-5 -1e-5,4.61522 h 1.89043 v -4.61522 z m 4.62803,1e-5 v 4.61521 h 1.89042 v -4.61521 z m 4.62803,-1e-5 v 4.61521 h 1.89043 v -4.6152 z m -63.153865,4.30417 v 4.61483 h 1.891176 c 1e-6,-1.53835 2e-6,-3.07648 0,-4.61483 z m 5.314221,0 -10e-7,4.61483 h 1.890049 l 10e-7,-4.61483 z m 10.626194,0 v 4.61483 h 1.89042 v -4.61483 z m 5.31346,0 v 4.61483 h 1.89118 v -4.61483 z m 52.41533,0.49202 -1e-5,4.61522 h 1.89081 v -4.61521 c -0.63014,0 -1.26065,-1e-5 -1.8908,-1e-5 z m 5.31347,0 v 4.61521 l 1.89004,1e-5 1e-5,-4.61522 c -0.63015,0 -1.2599,-1e-5 -1.89005,0 z m 10.62618,0 v 4.61522 h 1.89156 v -4.61522 c -0.63047,0 -1.26108,-1e-5 -1.89156,0 z m 5.31422,1e-5 1e-5,4.6152 1.89042,1e-5 v -4.61521 c -0.63015,-1e-5 -1.26028,-1e-5 -1.89043,0 z m -62.62187,2.84581 v 4.61521 h 1.89043 l -1e-5,-4.61521 z m 4.62803,0 v 4.61521 h 1.89005 c 0,-1.53834 0,-3.07687 0,-4.61521 z m 4.62804,0 -10e-6,4.61521 h 1.89005 v -4.61521 z m 4.62765,0 v 4.61521 h 1.89079 v -4.61521 z m 4.62727,0 v 4.61521 h 1.89156 l -1e-5,-4.61521 z m 4.62804,0 v 4.61521 h 1.89155 v -4.61521 z m -55.440237,4.30379 2e-6,4.61521 h 1.891176 c -10e-7,-1.53834 2e-6,-3.07688 -2e-6,-4.61521 z m 5.314225,-1e-5 -3e-6,4.61522 h 1.89005 l -3e-6,-4.61521 z m 5.312714,0 2e-6,4.61521 1.890797,1e-5 4e-6,-4.61522 z m 5.313468,1e-5 10e-6,4.61521 h 1.89042 v -4.61521 z m 5.31348,-1e-5 -1e-5,4.61522 1.89118,-1e-5 v -4.61521 z m 52.41532,0.4924 v 4.61483 l 1.8908,10e-6 v -4.61484 z m 5.31347,0 -1e-5,4.61484 1.89006,-10e-6 v -4.61483 z m 5.31309,0 v 4.61483 l 1.89043,10e-6 v -4.61484 z m -43.76666,2.84544 10e-6,4.61483 1.89004,1e-5 v -4.61484 z m 4.62652,0 v 4.61483 h 1.89156 v -4.61483 z m 4.62841,0 v 4.61484 h 1.89118 v -4.61484 z m 4.62804,0 v 4.61483 h 1.89042 v -4.61483 z m 9.25606,0 v 4.61484 h 1.89042 v -4.61484 z m -63.668137,4.30416 2e-6,4.61596 1.891176,1e-5 c -2e-6,-1.53868 -10e-7,-3.07729 -2e-6,-4.61597 z m 10.626939,0 -2e-6,4.61597 h 1.890801 l 3e-6,-4.61597 z m 5.313468,0 10e-6,4.61597 h 1.89042 v -4.61597 z m 5.31348,0 -1e-5,4.61597 h 1.89118 v -4.61597 z m 52.41532,0.49203 -1e-5,4.61483 h 1.89081 v -4.61483 c -0.63014,0 -1.26065,0 -1.8908,0 z m 5.31347,0 v 4.61483 h 1.89004 l 1e-5,-4.61483 c -0.63015,0 -1.25991,0 -1.89005,0 z m 10.62618,0 v 4.61483 h 1.89156 v -4.61483 c -0.63047,0 -1.26109,0 -1.89156,0 z m 5.31423,0 v 4.61483 h 1.89042 v -4.61483 c -0.63015,0 -1.26028,0 -1.89042,0 z" /><text
     xml:space="preserve"
     style="font-style:normal;font-variant:normal;font-weight:900;font-stretch:normal;font-size:3.175px;font-family:'NotoSerif Nerd Font Propo';-inkscape-font-specification:'NotoSerif Nerd Font Propo, Heavy';font-variant-ligatures:normal;font-variant-caps:normal;font-variant-numeric:normal;font-variant-east-asian:normal;text-align:start;writing-mode:lr-tb;direction:ltr;text-anchor:start;white-space:pre;inline-size:35.1363;display:inline;fill:#000000;fill-opacity:1;fill-rule:nonzero;paint-order:markers stroke fill;filter:url(#filter1288)"
     x="31.680975"
     y="249.48767"
     id="text460-5"
     transform="matrix(16.770032,0,0,19.401635,-523.0719,-4586.076)"
     inkscape:label="Title"
     sodipodi:insensitive="true"><tspan
       x="31.680975"
       y="249.48767"
       id="tspan3">Gitopolis</tspan></text><text
     xml:space="preserve"
     style="font-style:normal;font-variant:normal;font-weight:900;font-stretch:normal;font-size:3.175px;font-family:'NotoSerif Nerd Font Propo';-inkscape-font-specification:'NotoSerif Nerd Font Propo, Heavy';font-variant-ligatures:normal;font-variant-caps:normal;font-variant-numeric:normal;font-variant-east-asian:normal;text-align:start;writing-mode:lr-tb;direction:ltr;text-anchor:start;white-space:pre;inline-size:35.1363;display:inline;fill:#010e2a;fill-opacity:0.53698224;fill-rule:nonzero;paint-order:markers stroke fill"
     x="31.680975"
     y="249.48767"
     id="text460-5-5"
     transform="matrix(16.770032,0,0,19.401635,-525.66189,-4587.9614)"
     inkscape:label="Title"><tspan
       x="31.680975"
       y="249.48767"
       id="tspan4">Gitopolis</tspan></text></svg>
